# xmcd CD database file
# Copyright (C) 1993-1998 Ti Kan
#
# Track frame offsets:
#	182
#	14150
#	36732
#	49977
#	64560
#	97815
#	113947
#	131735
#	157662
#	174120
#	183485
#	214005
#	226365
#	246007
#	257350
#	285787
#
# Disc length: 4026 seconds
#
# Revision: 0
# Processed by: cddbd v1.4b41PL1 Copyright (c) Steve Scherf et al.
# Submitted via: CDmax 1.5
#
DISCID=d20fb810
DTITLE=The Producers - Nearly Wired
DYEAR=1900
DGENRE=
TTITLE0=So Far So Good
TTITLE1=Baby Please Don't Go
TTITLE2=Sweet Home Chicago
TTITLE3=No More Doggin'
TTITLE4=The Things I Used To Do
TTITLE5=Before You Accuse Me
TTITLE6=St. Louis Blues
TTITLE7=One Monkey Don't Stop The Show
TTITLE8=Big City Lights
TTITLE9=Liza
TTITLE10=You've Got To Move
TTITLE11=Staggerlee
TTITLE12=Well Now
TTITLE13=They're Red Hot
TTITLE14=Ain't Nobodys Business
TTITLE15=You Gonna Quit Me
EXTD=Mojo UK MUKCD5, 1996
EXTT0=
EXTT1=
EXTT2=
EXTT3=
EXTT4=
EXTT5=
EXTT6=
EXTT7=
EXTT8=
EXTT9=
EXTT10=
EXTT11=
EXTT12=
EXTT13=
EXTT14=
EXTT15=
PLAYORDER=
